#!OML:ASF E:\I on waltz\AllaLogoMonkeySwing\Project 1\Capture day 1\Session 1\Subject1.ASF
:FULLY-SPECIFIED
:DEGREES
1691
root 0.216603 17.4681 -20.5156 5.70654 13.8063 6.25523
lowerback 11.7331 -0.657589 -10.308
upperback 1.05024 -2.17369 0.55094
thorax -5.0768 -0.841967 6.75332
lowerneck -6.02801 3.37151 -0.378722
upperneck 10.0001 4.69879 -1.1244
head 4.39649 2.2466 -0.0431285
rclavicle 7.95139e-015 1.59028e-015
rhumerus -37.2165 -25.3225 -73.0029
rradius 31.4814
rwrist 1.06234
rhand -9.09622 -400.388
rfingers 7.12502
rthumb 16.8538 -69.677
lclavicle 7.95139e-015 1.59028e-015
lhumerus -30.6856 12.0191 79.2054
lradius 49.9042
lwrist 3.44324
lhand -9.20894 -14.3308
lfingers 7.12502
lthumb 16.7453 14.9671
rfemur -31.7771 -2.59843 8.28152
rtibia 35.0609
rfoot -14.7044 -12.0705
rtoes 26.4466
lfemur 3.11893 1.19466 -25.9904
ltibia 13.6996
lfoot -21.8484 -3.48864
ltoes -30.5928
1692
root 0.240349 17.5085 -20.6886 5.84539 13.7041 5.82629
lowerback 11.799 -0.809654 -10.1797
upperback 1.07618 -2.35825 0.661377
thorax -5.05064 -0.937076 6.82821
lowerneck -6.85357 1.46052 -1.38194
upperneck 10.4221 2.20541 -0.677931
head 4.68864 0.994875 0.153919
rclavicle 1.26725e-014 3.53837e-014
rhumerus -35.9055 -23.5213 -74.5269
rradius 31.4966
rwrist 2.49242
rhand -8.20665 -399.39
rfingers 7.12502
rthumb 17.71 -68.6032
lclavicle 1.26725e-014 3.53837e-014
lhumerus -30.8232 12.0602 78.8842
lradius 50.8131
lwrist 3.82141
lhand -9.50802 -14.468
lfingers 7.12502
lthumb 16.4574 14.8539
rfemur -31.7837 -2.06183 8.55953
rtibia 34.197
rfoot -16.2889 -12.8206
rtoes 25.4453
lfemur 1.77329 1.26062 -25.8102
ltibia 14.5948
lfoot -21.8366 -3.65246
ltoes -28.9628
1693
root 0.2735 17.572 -20.8556 5.63117 13.5578 4.85615
lowerback 12.0144 -1.00233 -9.40618
upperback 1.21643 -2.51209 0.933928
thorax -5.01088 -1.03413 6.71004
lowerneck -6.93242 -0.323559 -3.51638
upperneck 9.93334 -0.128963 0.882799
head 4.55098 -0.151912 0.922648
rclavicle -3.67752e-015 1.19271e-014
rhumerus -34.6056 -21.3235 -76.0895
rradius 31.6924
rwrist 3.25681
rhand -8.72098 -398.815
rfingers 7.12502
rthumb 17.215 -68.0724
lclavicle -3.67752e-015 1.19271e-014
lhumerus -31.1228 12.5631 78.587
lradius 51.7769
lwrist 4.16788
lhand -9.66188 -14.5665
lfingers 7.12502
lthumb 16.3092 14.7677
rfemur -31.4471 -1.5251 9.46824
rtibia 33.5652
rfoot -17.2707 -13.9364
rtoes 24.3733
lfemur 0.790572 1.13227 -25.1464
ltibia 15.3795
lfoot -21.673 -3.31597
ltoes -28.7487
1694
root 0.308247 17.6067 -21.0199 5.31678 13.2207 3.86989
lowerback 12.2154 -1.13419 -8.61725
upperback 1.44668 -2.57505 1.20577
thorax -4.88667 -1.09327 6.56498
lowerneck -7.05169 -2.08998 -5.99196
upperneck 9.81496 -2.42537 2.75847
head 4.19801 -1.26449 1.68146
rclavicle -1.49585e-014 -1.49089e-014
rhumerus -33.5814 -18.6874 -77.6502
rradius 32.665
rwrist 3.43309
rhand -8.7126 -399.508
rfingers 7.12502
rthumb 17.2231 -68.7645
lclavicle -1.49585e-014 -1.49089e-014
lhumerus -31.5096 13.2271 78.3337
lradius 52.79
lwrist 4.59888
lhand -9.62277 -14.6986
lfingers 7.12502
lthumb 16.3469 14.6324
rfemur -31.1686 -1.96739 10.7248
rtibia 33.427
rfoot -17.5892 -13.9771
rtoes 23.7558
lfemur -0.00878338 0.913914 -24.5092
ltibia 16.0832
lfoot -21.294 -2.553
ltoes -29.8828
1695
root 0.343549 17.6268 -21.1793 5.06483 12.5798 3.25525
lowerback 12.4292 -1.14227 -8.21447
upperback 1.63991 -2.5351 1.33683
thorax -4.81767 -1.0899 6.47463
lowerneck -6.29404 -3.68818 -5.08492
upperneck 8.36526 -4.59135 1.68824
head 4.05597 -2.35594 1.21188
rclavicle 2.9768e-014 1.07344e-014
rhumerus -32.9235 -16.0147 -79.0395
rradius 33.9057
rwrist 3.34315
rhand -7.99977 -400.123
rfingers 7.12502
rthumb 17.9091 -69.3186
lclavicle 2.9768e-014 1.07344e-014
lhumerus -32.1758 13.6522 78.0308
lradius 53.8847
lwrist 5.32158
lhand -9.71578 -14.6611
lfingers 7.12502
lthumb 16.2573 14.6773
rfemur -31.0153 -2.58986 11.7139
rtibia 33.9607
rfoot -17.6797 -13.2949
rtoes 23.0952
lfemur -0.720982 0.711317 -24.3013
ltibia 16.7479
lfoot -20.8777 -1.5152
ltoes -30.7113
1696
root 0.375569 17.6438 -21.3315 4.90797 11.6098 2.80133
lowerback 12.6893 -1.05116 -8.01735
upperback 1.71741 -2.40245 1.41773
thorax -4.90641 -1.02556 6.43909
lowerneck -6.46745 -5.28858 -6.11598
upperneck 8.33691 -6.66524 2.12587
head 4.23515 -3.39174 1.40958
rclavicle -4.42296e-015 1.17283e-014
rhumerus -32.5694 -13.1964 -80.317
rradius 35.0353
rwrist 2.39971
rhand -8.19066 -399.431
rfingers 7.12502
rthumb 17.7254 -68.6427
lclavicle -4.42296e-015 1.17283e-014
lhumerus -33.0437 14.0708 77.6639
lradius 54.8122
lwrist 5.99265
lhand -9.92838 -14.6744
lfingers 7.12502
lthumb 16.0526 14.6807
rfemur -31.107 -3.05802 12.5853
rtibia 35.2794
rfoot -17.7265 -12.3322
rtoes 22.1194
lfemur -1.51575 0.636303 -24.2574
ltibia 17.5408
lfoot -20.6128 -0.441405
ltoes -30.8539
1697
root 0.397701 17.6583 -21.4754 4.81231 10.5124 2.49211
lowerback 12.8947 -0.914831 -8.0856
upperback 1.77889 -2.24266 1.49129
thorax -4.97565 -0.943714 6.54024
lowerneck -6.16167 -6.51959 -6.92738
upperneck 7.8114 -8.3088 2.73736
head 4.14971 -4.1989 1.66266
rclavicle -1.49585e-014 -3.37934e-015
rhumerus -32.1317 -10.2812 -81.4358
rradius 36.0275
rwrist 1.21053
rhand -8.48176 -398.839
rfingers 7.12502
rthumb 17.4452 -68.0766
lclavicle -1.49585e-014 -3.37934e-015
lhumerus -33.8325 14.7952 77.2898
lradius 55.3555
lwrist 6.44055
lhand -10.0357 -14.973
lfingers 7.12502
lthumb 15.9492 14.3903
rfemur -31.2515 -3.24764 13.2861
rtibia 37.1444
rfoot -17.8022 -11.4084
rtoes 21.6825
lfemur -2.28916 0.714025 -24.2859
ltibia 18.2935
lfoot -20.5114 0.363443
ltoes -29.1625
1698
root 0.408687 17.6629 -21.6118 4.71434 9.51472 2.44305
lowerback 13.0517 -0.806892 -8.53131
upperback 1.89478 -2.17018 1.51622
thorax -4.93264 -0.90602 6.81459
lowerneck -5.00557 -7.41831 -7.93225
upperneck 6.32531 -9.59576 4.00273
head 3.62216 -4.81368 2.23636
rclavicle -2.84014e-014 6.95746e-015
rhumerus -31.4982 -7.58757 -82.3853
rradius 36.9938
rwrist 0.288534
rhand -8.08292 -398.651
rfingers 7.12502
rthumb 17.829 -67.8541
lclavicle -2.84014e-014 6.95746e-015
lhumerus -34.5276 15.8337 76.8616
lradius 55.5167
lwrist 6.8172
lhand -10.1497 -15.309
lfingers 7.12502
lthumb 15.8394 14.0631
rfemur -31.2537 -3.3718 13.7081
rtibia 39.3407
rfoot -17.5763 -10.7377
rtoes 20.2159
lfemur -3.00551 0.950405 -24.4837
ltibia 19.0692
lfoot -20.5984 0.804004
ltoes -25.8501
1699
root 0.413918 17.6614 -21.7409 4.59478 8.63937 2.43053
lowerback 13.1755 -0.766254 -9.02364
upperback 2.03026 -2.19164 1.51911
thorax -4.83247 -0.918394 7.10485
lowerneck -4.16699 -8.14924 -8.72489
upperneck 5.16192 -10.6372 5.05611
head 3.2636 -5.31671 2.71117
rclavicle -3.68746e-014 -2.01766e-014
rhumerus -30.8679 -5.34954 -83.2069
rradius 37.919
rwrist -0.399388
rhand -7.71715 -398.243
rfingers 7.12502
rthumb 18.181 -67.413
lclavicle -3.68746e-014 -2.01766e-014
lhumerus -35.2481 17.0172 76.3286
lradius 55.3524
lwrist 7.10219
lhand -10.3867 -15.6359
lfingers 7.12502
lthumb 15.6112 13.7541
rfemur -31.1264 -3.58867 14.1129
rtibia 41.6723
rfoot -17.2859 -10.5264
rtoes 17.7546
lfemur -3.70411 1.24661 -24.6665
ltibia 19.8681
lfoot -20.6574 1.19496
ltoes -23.8497
1700
root 0.41845 17.6597 -21.8595 4.49359 7.89627 2.31757
lowerback 13.2044 -0.757524 -9.26929
upperback 2.14997 -2.21354 1.50228
thorax -4.70674 -0.936853 7.22872
lowerneck -3.9104 -8.77611 -9.09754
upperneck 4.64574 -11.4975 5.59315
head 3.17512 -5.73658 2.92013
rclavicle -2.83144e-014 -2.1916e-014
rhumerus -30.377 -3.69207 -83.8263
rradius 38.8894
rwrist -0.674641
rhand -7.4581 -398.011
rfingers 7.12502
rthumb 18.4302 -67.158
lclavicle -2.83144e-014 -2.1916e-014
lhumerus -35.9611 18.1109 75.7798
lradius 54.8433
lwrist 7.23129
lhand -10.7984 -16.0395
lfingers 7.12502
lthumb 15.2147 13.3811
rfemur -30.8686 -3.94037 14.6194
rtibia 43.9941
rfoot -17.7372 -10.4523
rtoes 17.7126
lfemur -4.42129 1.50088 -24.7183
ltibia 20.6661
lfoot -20.5402 1.72239
ltoes -24.4446
